<svg id="Layer_1" height="512" viewBox="0 0 512 512" width="512" xmlns="http://www.w3.org/2000/svg" data-name="Layer 1"><path d="m370.12 44.81a238.918 238.918 0 0 0 -114.12-28.81c-132.55 0-240 107.45-240 240a239.926 239.926 0 0 0 240 240c132.55 0 240-107.45 240-240a239.96 239.96 0 0 0 -125.88-211.19z" fill="#d4e1f4"/><path d="m342.28 153.56-.05.02-8.99 3.83c-11.56 2.47-20.03 2.48-30.63.03q-2.43-.57-5.04-1.3l-29.99-8.43a39.8 39.8 0 0 0 -22.73.37l-28.94 9.16a39.727 39.727 0 0 0 -24.62 22.43l-8.85 21.54q-3.3 8.07-6.02 16.35l-8.82 26.93 1.9.85a38.362 38.362 0 0 0 36.83-2.79 37.276 37.276 0 0 0 16.6-27.57c.05-.53.1-1.08.14-1.63 0 0 3.52-20.84 19.01-20.9l13.56 3.83a35.906 35.906 0 0 1 15.49 9.01l1.76 1.74 77.17 76.3 26.58 22.94a51.28 51.28 0 0 0 26.32-24.05h.01z" fill="#efc597"/><path d="m178.624 354.021 28.365 25.744" fill="#f6e4d5"/><path d="m391.54 319.14-41.48-35.81-77.17-76.3-1.76-1.74a35.906 35.906 0 0 0 -15.49-9.01l-13.56-3.83c-15.49.06-19.01 20.9-19.01 20.9-.04.55-.09 1.1-.14 1.63a37.276 37.276 0 0 1 -16.6 27.57 38.362 38.362 0 0 1 -36.83 2.79l-1.9-.85 8.82-26.93 14.87-37.89a39.506 39.506 0 0 1 8.16-12.29c-1.67-.88-16.22-8.04-39.56-.81l-60.62 115.43 152.26 138.19a21 21 0 0 0 27.55-31.7l9.13 7.89a21 21 0 1 0 27.45-31.78l9.23 7.97a21 21 0 0 0 27.47-31.76c3.88 3.35 7.73 6.68 11.25 9.72a21.013 21.013 0 0 0 29.69-2.24l.34-.4a20.373 20.373 0 0 0 -2.1-28.75z" fill="#f6e4d5"/><path d="m453.12 270.88-70.77-150.95a9.191 9.191 0 0 0 -11.7-4.65l-30.01 11.82a9.2 9.2 0 0 0 -4.95 12.48l71.59 151.78a9.194 9.194 0 0 0 11.97 4.52l29.2-12.66a9.191 9.191 0 0 0 4.67-12.34z" fill="#6d7486"/><path d="m166.01 136.4-27.56-16.77a9.2 9.2 0 0 0 -12.93 3.6l-77.69 148.75a9.2 9.2 0 0 0 3.63 12.27l27.73 15.62a9.183 9.183 0 0 0 12.65-3.73l77.53-147.61a9.21 9.21 0 0 0 -3.36-12.13z" fill="#f2838d"/><path d="m46 256c0-127.558 99.514-231.853 225.14-239.529q-7.51-.471-15.14-.471c-132.55 0-240 107.45-240 240a239.926 239.926 0 0 0 240 240c5.012 0 9.984-.172 14.92-.475a239.913 239.913 0 0 1 -224.92-239.525z" fill="#bdccdb"/><path d="m138.45 119.63a9.2 9.2 0 0 0 -12.93 3.6l-77.69 148.75a9.2 9.2 0 0 0 3.63 12.27l13.064 7.359a9.189 9.189 0 0 1 -.694-9.629l77.69-148.75a9.2 9.2 0 0 1 12.93-3.6z" fill="#ce7281"/><path d="m428.28 282.36-71.59-151.78a9.2 9.2 0 0 1 1.991-10.586l-18.041 7.106a9.2 9.2 0 0 0 -4.95 12.48l71.59 151.78a9.194 9.194 0 0 0 11.97 4.52l19.816-8.591a9.187 9.187 0 0 1 -10.786-4.929z" fill="#525a68"/><path d="m284.25 408.3a20.924 20.924 0 0 1 -13.72-5.11l-159.224-144.108-12.036 22.918 152.26 138.19a20.968 20.968 0 0 0 34.338-11.959c-.539.041-1.078.069-1.618.069z" fill="#e5d3c6"/><path d="m152.37 324.58 7.79-10.82a19.146 19.146 0 0 0 -31.07-22.38l-6.98 9.68-21.9 30.4a19.148 19.148 0 0 0 31.07 22.39l20.93-29.07c.05-.07.1-.13.16-.2z" fill="#efc597"/><path d="m228.08 383.25a19.145 19.145 0 0 0 -26.72 4.33l6.49-9.01a19.144 19.144 0 0 0 -31.059-22.391l6.489-9.009a19.143 19.143 0 0 0 -30.91-22.59l-21.09 29.27a19.141 19.141 0 1 0 31.06 22.38l6.188-8.589-6.188 8.589a19.146 19.146 0 0 0 31.07 22.38 19.146 19.146 0 1 0 31.07 22.38l7.94-11.02a19.246 19.246 0 0 0 1.99-3.48 19.147 19.147 0 0 0 -6.33-23.24z" fill="#efc597"/><path d="m207.75 415.34a19.15 19.15 0 0 1 -4.34-26.73 19.146 19.146 0 0 1 -31.07-22.38 19.141 19.141 0 1 1 -31.06-22.38 19.04 19.04 0 0 1 -7.121 6l-2.879 4a19.141 19.141 0 1 0 31.06 22.38 19.146 19.146 0 0 0 31.07 22.38 19.146 19.146 0 1 0 31.07 22.38l2.876-3.99a19.142 19.142 0 0 1 -19.606-1.66z" fill="#d3a784"/><path d="m114.55 348.19a19.15 19.15 0 0 1 -4.34-26.73l21.9-30.4 4.1-5.687a19.055 19.055 0 0 0 -7.121 6.007l-6.98 9.68-21.9 30.4a19.148 19.148 0 0 0 31.07 22.39l2.875-3.993a19.149 19.149 0 0 1 -19.604-1.667z" fill="#d3a784"/><path d="m429.948 82.052a246 246 0 1 0 -347.9 347.9 246 246 0 1 0 347.9-347.9zm-407.948 173.948a234.2 234.2 0 0 1 339.739-208.87l-240.095 400.526a236.854 236.854 0 0 1 -31.107-26.193 232.467 232.467 0 0 1 -68.537-165.463zm399.463 165.463a234.208 234.208 0 0 1 -289.818 32.85l240.655-401.466a235.217 235.217 0 0 1 49.159 37.69 234 234 0 0 1 0 330.926z" fill="#7d98aa"/></svg>